<svg width="25" height="26" viewBox="0 0 25 26" fill="none" xmlns="http://www.w3.org/2000/svg">
<g clip-path="url(#clip0_147_49)">
<path d="M12.1094 0.5C5.42153 0.5 0 5.92153 0 12.6094C0 19.2972 5.42153 24.7188 12.1094 24.7188C18.7972 24.7188 24.2188 19.2972 24.2188 12.6094C24.2188 5.92153 18.7972 0.5 12.1094 0.5ZM17.8288 17.4313C17.7511 17.5225 15.8866 19.6643 12.465 19.6643C8.32964 19.6643 5.41011 16.5754 5.41011 12.5565C5.41011 8.58662 8.43765 5.55449 12.4297 5.55449C15.6991 5.55449 17.4085 7.37651 17.4796 7.4541C17.5673 7.54965 17.6208 7.67158 17.6317 7.80079C17.6427 7.93 17.6104 8.05919 17.5401 8.16812L16.4473 9.86025C16.2496 10.1663 15.8236 10.2192 15.557 9.97231C15.5456 9.96186 14.2616 8.8063 12.5355 8.8063C10.2837 8.8063 8.92632 10.4457 8.92632 12.5212C8.92632 14.4549 10.1721 16.4125 12.5531 16.4125C14.4426 16.4125 15.7406 15.0288 15.7535 15.0147C16.0041 14.743 16.44 14.769 16.6572 15.0662L17.8558 16.7054C17.9336 16.8118 17.9732 16.9413 17.9683 17.073C17.9634 17.2048 17.9143 17.331 17.8288 17.4313Z" fill="white"/>
</g>
<defs>
<clipPath id="clip0_147_49">
<rect width="25" height="25" fill="white" transform="translate(0 0.5)"/>
</clipPath>
</defs>
</svg>
