<svg width="25" height="25" viewBox="0 0 25 25" fill="none" xmlns="http://www.w3.org/2000/svg">
<g clip-path="url(#clip0_147_222)">
<path d="M13.1094 1C6.42153 1 1 6.42153 1 13.1094C1 19.7972 6.42153 25.2188 13.1094 25.2188C19.7972 25.2188 25.2188 19.7972 25.2188 13.1094C25.2188 6.42153 19.7972 1 13.1094 1ZM18.8288 17.9313C18.7511 18.0225 16.8866 20.1643 13.465 20.1643C9.32964 20.1643 6.41011 17.0754 6.41011 13.0565C6.41011 9.08662 9.43765 6.05449 13.4297 6.05449C16.6991 6.05449 18.4085 7.87651 18.4796 7.9541C18.5673 8.04965 18.6208 8.17158 18.6317 8.30079C18.6427 8.43 18.6104 8.55919 18.5401 8.66812L17.4473 10.3603C17.2496 10.6663 16.8236 10.7192 16.557 10.4723C16.5456 10.4619 15.2616 9.3063 13.5355 9.3063C11.2837 9.3063 9.92632 10.9457 9.92632 13.0212C9.92632 14.9549 11.1721 16.9125 13.5531 16.9125C15.4426 16.9125 16.7406 15.5288 16.7535 15.5147C17.0041 15.243 17.44 15.269 17.6572 15.5662L18.8558 17.2054C18.9336 17.3118 18.9732 17.4413 18.9683 17.573C18.9634 17.7048 18.9143 17.831 18.8288 17.9313Z" fill="white"/>
</g>
<defs>
<clipPath id="clip0_147_222">
<rect width="25" height="25" fill="white"/>
</clipPath>
</defs>
</svg>
