<svg width="25" height="26" viewBox="0 0 25 26" fill="none" xmlns="http://www.w3.org/2000/svg">
<g clip-path="url(#clip0_147_45)">
<path d="M13.1094 0.5C6.42153 0.5 1 5.92153 1 12.6094C1 19.2972 6.42153 24.7188 13.1094 24.7188C19.7972 24.7188 25.2188 19.2972 25.2188 12.6094C25.2188 5.92153 19.7972 0.5 13.1094 0.5ZM18.8288 17.4313C18.7511 17.5225 16.8866 19.6643 13.465 19.6643C9.32964 19.6643 6.41011 16.5754 6.41011 12.5565C6.41011 8.58662 9.43765 5.55449 13.4297 5.55449C16.6991 5.55449 18.4085 7.37651 18.4796 7.4541C18.5673 7.54965 18.6208 7.67158 18.6317 7.80079C18.6427 7.93 18.6104 8.05919 18.5401 8.16812L17.4473 9.86025C17.2496 10.1663 16.8236 10.2192 16.557 9.97231C16.5456 9.96186 15.2616 8.8063 13.5355 8.8063C11.2837 8.8063 9.92632 10.4457 9.92632 12.5212C9.92632 14.4549 11.1721 16.4125 13.5531 16.4125C15.4426 16.4125 16.7406 15.0288 16.7535 15.0147C17.0041 14.743 17.44 14.769 17.6572 15.0662L18.8558 16.7054C18.9336 16.8118 18.9732 16.9413 18.9683 17.073C18.9634 17.2048 18.9143 17.331 18.8288 17.4313Z" fill="white"/>
</g>
<defs>
<clipPath id="clip0_147_45">
<rect width="25" height="25" fill="white" transform="translate(0 0.5)"/>
</clipPath>
</defs>
</svg>
