<svg width="25" height="25" viewBox="0 0 25 25" fill="none" xmlns="http://www.w3.org/2000/svg">
<g clip-path="url(#clip0_147_231)">
<path d="M13.1094 0C6.42153 0 1 5.42153 1 12.1094C1 18.7972 6.42153 24.2188 13.1094 24.2188C19.7972 24.2188 25.2188 18.7972 25.2188 12.1094C25.2188 5.42153 19.7972 0 13.1094 0ZM18.8288 16.9313C18.7511 17.0225 16.8866 19.1643 13.465 19.1643C9.32964 19.1643 6.41011 16.0754 6.41011 12.0565C6.41011 8.08662 9.43765 5.05449 13.4297 5.05449C16.6991 5.05449 18.4085 6.87651 18.4796 6.9541C18.5673 7.04965 18.6208 7.17158 18.6317 7.30079C18.6427 7.43 18.6104 7.55919 18.5401 7.66812L17.4473 9.36025C17.2496 9.66626 16.8236 9.71919 16.557 9.47231C16.5456 9.46186 15.2616 8.3063 13.5355 8.3063C11.2837 8.3063 9.92632 9.9457 9.92632 12.0212C9.92632 13.9549 11.1721 15.9125 13.5531 15.9125C15.4426 15.9125 16.7406 14.5288 16.7535 14.5147C17.0041 14.243 17.44 14.269 17.6572 14.5662L18.8558 16.2054C18.9336 16.3118 18.9732 16.4413 18.9683 16.573C18.9634 16.7048 18.9143 16.831 18.8288 16.9313Z" fill="white"/>
</g>
<defs>
<clipPath id="clip0_147_231">
<rect width="25" height="25" fill="white"/>
</clipPath>
</defs>
</svg>
